<svg width="40" height="40" viewBox="0 0 40 40" fill="none" xmlns="http://www.w3.org/2000/svg">
<path d="M20.0013 0.00128155C8.95181 0.00128155 0 9.18629 0 20.5064C0 29.5709 5.73036 37.2539 13.6721 39.9645C14.6759 40.158 15.0384 39.5236 15.0384 38.9751C15.0384 38.4881 15.0272 37.2001 15.0197 35.4905C9.45309 36.7259 8.28052 32.7338 8.28052 32.7338C7.36921 30.3706 6.05413 29.7362 6.05413 29.7362C4.24402 28.4688 6.19789 28.4957 6.19789 28.4957C8.20301 28.6354 9.25808 30.6039 9.25808 30.6039C11.0419 33.7412 13.9384 32.8338 15.0847 32.3058C15.2597 30.9845 15.781 30.0759 16.3485 29.5696C11.9082 29.0557 7.2392 27.2936 7.2392 19.4363C7.2392 17.1923 8.01425 15.3647 9.29558 13.9294C9.07432 13.4155 8.39678 11.3265 9.47184 8.50193C9.47184 8.50193 11.1457 7.9547 14.9722 10.605C16.5735 10.15 18.2736 9.92319 19.9725 9.91166C21.6726 9.92319 23.3715 10.1513 24.9728 10.605C28.7768 7.9547 30.4494 8.50193 30.4494 8.50193C31.5232 11.3265 30.8457 13.4142 30.6507 13.9294C31.9195 15.3647 32.6945 17.1935 32.6945 19.4363C32.6945 27.3115 28.0193 29.048 23.574 29.5491C24.269 30.163 24.9203 31.4254 24.9203 33.3413C24.9203 36.0839 24.8953 38.2933 24.8953 38.961C24.8953 39.4941 25.2453 40.1349 26.2754 39.9286C34.2759 37.2462 40 29.5568 40 20.5051C40 9.18501 31.0482 0 19.9988 0L20.0013 0.00128155Z" fill="#014F86"/>
</svg>
