<svg width="40" height="40" viewBox="0 0 40 40" fill="none" xmlns="http://www.w3.org/2000/svg">
<path d="M34.075 34.0877H28.1588V24.8042C28.1588 22.5905 28.1125 19.7456 25.065 19.7456C21.98 19.7456 21.51 22.1468 21.51 24.6405V34.0864H15.5863V14.9983H21.2762V17.602H21.3525C22.1475 16.0982 24.0812 14.517 26.9662 14.517C32.9675 14.517 34.0812 18.4682 34.0812 23.6055V34.0864L34.075 34.0877ZM8.89375 12.3896C6.985 12.3896 5.455 10.8459 5.455 8.94472C5.455 7.04978 6.99125 5.50858 8.89375 5.50858C10.7962 5.50858 12.3375 7.04978 12.3375 8.94472C12.3375 10.8459 10.7962 12.3896 8.89375 12.3896ZM11.8612 34.0877H5.925V14.9995H11.8612V34.0877ZM37.045 0H2.95C1.32125 0 0 1.28871 0 2.88366V37.1163C0 38.7113 1.32125 40 2.95 40H37.0387C38.665 40 40 38.7113 40 37.1163V2.88366C40 1.28871 38.665 0 37.0387 0L37.045 0Z" fill="#014F86"/>
</svg>
