<svg width="33" height="53" viewBox="0 0 33 53" fill="none" xmlns="http://www.w3.org/2000/svg">
<path d="M16.9043 8.45972e-08H16.0958C13.982 -0.000216636 11.8888 0.415964 9.93592 1.22477C7.98299 2.03359 6.20852 3.21918 4.71385 4.71385C3.21918 6.20852 2.03359 7.98299 1.22477 9.93592C0.415964 11.8888 -0.000216636 13.982 8.45972e-08 16.0958V36.7043C-0.000216636 38.818 0.415964 40.9112 1.22477 42.8641C2.03359 44.817 3.21918 46.5915 4.71385 48.0861C6.20852 49.5808 7.98299 50.7664 9.93592 51.5752C11.8888 52.384 13.982 52.8002 16.0958 52.8H16.9043C19.018 52.8002 21.1112 52.384 23.0641 51.5752C25.017 50.7664 26.7915 49.5808 28.2861 48.0861C29.7808 46.5915 30.9664 44.817 31.7752 42.8641C32.584 40.9112 33.0002 38.818 33 36.7043V16.0958C33.0002 13.982 32.584 11.8888 31.7752 9.93592C30.9664 7.98299 29.7808 6.20852 28.2861 4.71385C26.7915 3.21918 25.017 2.03359 23.0641 1.22477C21.1112 0.415964 19.018 -0.000216636 16.9043 8.45972e-08ZM31.35 36.5096C31.35 44.5946 24.7962 51.15 16.7096 51.15H16.2888C14.3663 51.15 12.4626 50.7713 10.6864 50.0355C8.91022 49.2998 7.29638 48.2213 5.93702 46.8618C4.57766 45.5023 3.49941 43.8883 2.76384 42.1121C2.02827 40.3358 1.64978 38.4321 1.65 36.5096V16.2904C1.64978 14.3678 2.02832 12.4639 2.764 10.6875C3.49967 8.91118 4.57807 7.29714 5.93761 5.93761C7.29714 4.57807 8.91118 3.49967 10.6875 2.764C12.4639 2.02832 14.3678 1.64978 16.2904 1.65H16.7112C24.7962 1.65 31.35 8.2038 31.35 16.2904V36.5096Z" fill="#333533"/>
<path d="M16.8071 9.90002H16.1916C15.3981 9.90046 14.6372 10.216 14.0763 10.7773C13.5153 11.3385 13.2002 12.0996 13.2002 12.8931V23.4086C13.2002 25.0602 14.54 26.4 16.1933 26.4H16.8087C17.6023 26.3996 18.3632 26.084 18.9241 25.5228C19.4851 24.9615 19.8002 24.2005 19.8002 23.4069V12.8931C19.8002 12.0993 19.4849 11.338 18.9235 10.7767C18.3622 10.2154 17.6009 9.90002 16.8071 9.90002ZM18.1502 23.1C18.1502 23.5376 17.9764 23.9573 17.6669 24.2668C17.3575 24.5762 16.9378 24.75 16.5002 24.75C16.0626 24.75 15.6429 24.5762 15.3335 24.2668C15.024 23.9573 14.8502 23.5376 14.8502 23.1V13.2C14.8502 12.7624 15.024 12.3427 15.3335 12.0333C15.6429 11.7239 16.0626 11.55 16.5002 11.55C16.9378 11.55 17.3575 11.7239 17.6669 12.0333C17.9764 12.3427 18.1502 12.7624 18.1502 13.2V23.1Z" fill="#333533"/>
</svg>
